<svg xmlns="http://www.w3.org/2000/svg" xmlns:xlink="http://www.w3.org/1999/xlink" fill="none" version="1.1" width="15" height="14" viewBox="0 0 15 14"><defs><linearGradient x1="0.24785569310188293" y1="-1.8365384768515014e-9" x2="0.5344229963531525" y2="0.9900362178283842" id="master_svg0_526_17536"><stop offset="0%" stop-color="#66C2FF" stop-opacity="1"/><stop offset="100%" stop-color="#368FFF" stop-opacity="1"/></linearGradient></defs><g><g><path d="M12.8571,0C14.0406,-2.36724e-16,15,1.04467,15,2.33333L15,11.6667C15,12.9553,14.0406,14,12.8571,14L2.14286,14C0.95939,14,1.44933e-16,12.9553,0,11.6667L0,2.33333C-1.44933e-16,1.04467,0.95939,2.36724e-16,2.14286,0L12.8571,0Z" fill="url(#master_svg0_526_17536)" fill-opacity="1"/></g><g><path d="M3.2138671875 7.519600987434387C3.2138671875 6.935456628697698 3.687409753697698 6.4619140625 4.271554112434387 6.4619140625L4.299037337303162 6.4619140625C4.883181696039851 6.4619140625 5.356724262237549 6.935456628697698 5.356724262237549 7.519600987434387L5.356724262237549 9.711919665336609C5.356724262237549 10.296064024073297 4.883181696039851 10.769606590270996 4.299037337303162 10.769606590270996L4.271554112434387 10.769606590270996C3.687409753697698 10.769606590270996 3.2138671875 10.296064024073297 3.2138671875 9.711919665336609Z" fill="#FFFFFF" fill-opacity="1"/></g><g><path d="M9.642578125 6.442452549934387C9.642578125 5.858308191197698 10.116120691197699 5.384765625 10.700265049934387 5.384765625L10.727748274803162 5.384765625C11.31189263353985 5.384765625 11.785435199737549 5.858308191197698 11.785435199737549 6.442452549934387L11.785435199737549 9.711694598197937C11.785435199737549 10.295838956934626 11.31189263353985 10.769381523132324 10.727748274803162 10.769381523132324L10.700265049934387 10.769381523132324C10.116120691197699 10.769381523132324 9.642578125 10.295838956934626 9.642578125 9.711694598197937Z" fill="#FFFFFF" fill-opacity="1"/></g><g><path d="M6.4287109375 4.288155674934387C6.4287109375 3.704011316197698 6.902253503697698 3.23046875 7.486397862434387 3.23046875L7.513881087303162 3.23046875C8.09802544603985 3.23046875 8.571568012237549 3.704011316197698 8.571568012237549 4.288155674934387L8.571568012237549 9.711243510246277C8.571568012237549 10.295387868982965 8.09802544603985 10.768930435180664 7.513881087303162 10.768930435180664L7.486397862434387 10.768930435180664C6.902253503697698 10.768930435180664 6.4287109375 10.295387868982965 6.4287109375 9.711243510246277Z" fill="#FFFFFF" fill-opacity="1"/></g></g></svg>