<svg xmlns="http://www.w3.org/2000/svg" xmlns:xlink="http://www.w3.org/1999/xlink" fill="none" version="1.1" width="15" height="14" viewBox="0 0 15 14"><defs><linearGradient x1="0" y1="0.5" x2="1" y2="0.5" id="master_svg0_534_18013"><stop offset="0%" stop-color="#FFCC00" stop-opacity="1"/><stop offset="100%" stop-color="#FF9500" stop-opacity="1"/></linearGradient></defs><g><g><path d="M12.8571,0C14.0406,-2.36724e-16,15,1.04467,15,2.33333L15,11.6667C15,12.9553,14.0406,14,12.8571,14L2.14286,14C0.95939,14,1.44933e-16,12.9553,0,11.6667L0,2.33333C-1.44933e-16,1.04467,0.95939,2.36724e-16,2.14286,0L12.8571,0Z" fill-rule="evenodd" fill="url(#master_svg0_534_18013)" fill-opacity="1"/></g><g><path d="M3.2138671875 4.276157975196838C3.2138671875 3.6986397630582464 3.6820382005582464 3.23046875 4.259556412696838 3.23046875L10.739606261253357 3.23046875C11.31712447339195 3.23046875 11.785295486450195 3.6986397630582464 11.785295486450195 4.276157975196838L11.785295486450195 4.33862578868866C11.785295486450195 4.916144000827252 11.31712447339195 5.384315013885498 10.739606261253357 5.384315013885498L4.259556412696838 5.384315013885498C3.6820382005582464 5.384315013885498 3.2138671875 4.916144000827252 3.2138671875 4.33862578868866Z" fill="#FFFFFF" fill-opacity="1"/></g><g><path d="M3.2138671875 8.583775162696838C3.2138671875 8.006256950558246 3.6820382005582464 7.5380859375 4.259556412696838 7.5380859375L7.525320410728455 7.5380859375C8.102838622867047 7.5380859375 8.571009635925293 8.006256950558246 8.571009635925293 8.583775162696838L8.571009635925293 8.64624297618866C8.571009635925293 9.223761188327252 8.102838622867047 9.691932201385498 7.525320410728455 9.691932201385498L4.259556412696838 9.691932201385498C3.6820382005582464 9.691932201385498 3.2138671875 9.223761188327252 3.2138671875 8.64624297618866Z" fill="#FFFFFF" fill-opacity="1"/></g></g></svg>